<svg id="Group_35966" data-name="Group 35966" xmlns="http://www.w3.org/2000/svg" xmlns:xlink="http://www.w3.org/1999/xlink" width="616.581" height="568.229" viewBox="0 0 616.581 568.229">
  <defs>
    <clipPath id="clip-path">
      <rect id="Rectangle_1364" data-name="Rectangle 1364" width="616.581" height="568.229" fill="none"/>
    </clipPath>
  </defs>
  <g id="Group_35965" data-name="Group 35965" clip-path="url(#clip-path)">
    <path id="Path_767" data-name="Path 767" d="M572.863,289.87c20.951-22.464,40.619-52.757,29.914-81.169-10.733-28.485-45.934-39.4-76.808-44.845s-65.9-11.467-83-36.886c-17.26-25.654-9.017-61.644-25.978-87.484C398.979,12.044,360.621,6.606,327.1,3.865,275.987-.317,223.353-4.351,174.379,10.39s-94,53.016-99.575,102.267c-5.665,50.062,29.3,100.829,13.926,148.95C72.766,311.552,7.793,339.1,1.323,391c-3.388,27.166,10.762,53.185,24.461,77.137,17.526,30.644,35.052,63.228,52.58,93.872H513.542c-6.255-8.525-.063-20.794,8.67-26.962s19.668-9.038,28.061-15.631c22.225-17.457,17.21-51.739,4.681-76.62S524,393.586,525.515,365.956c1.659-30.19,26.4-53.622,47.348-76.086" transform="translate(0.356 0)" fill="#f3edff"/>
    <path id="Path_768" data-name="Path 768" d="M34.479,259.4c46.946-45.207,43.366-69.264,33.729-129.494-4.7-29.391-42.076-.588-55.411,43.968C-1.2,220.624,9.5,283.454,34.479,259.4" transform="translate(2.877 51.514)" fill="#f3edff"/>
    <path id="Path_769" data-name="Path 769" d="M190.338,458.208c-6.209,11.042-91.846,34.664-92.484,2.131-.536-27.4,61.731-19.24,84.572-9.624-6.811-6.662-13.338-13.539-19.593-20.378q-8.982-9.827-17.276-20.2C132.118,418.7,49.621,420.77,56.224,390.06c5.283-24.573,55.129-7.919,78.8,6.27q-12.486-17-23.267-35.158c-9.912,8.548-97.809,5.584-88.809-25.525,7.521-26,63.24-.708,82.89,15.3q-11.036-19.66-20.208-40.316c-12.528,6.606-97.149-7.821-84.312-37.143,10.617-24.257,60.567,6.183,79.009,24.772q-4.812-11.646-9.044-23.517c-13.2-5.386-56.954-79.031-26.335-88.259,28.927-8.718,36.83,67.72,30.759,85.092Q80.473,284.99,85.991,298.1c1.076-24.42,21.333-86.157,45.8-72.521,27.551,15.356-27.5,78.844-41.716,82.029q9.027,20.317,19.916,39.7c-1.454-25.481,10.605-86.285,36.059-76.191,28.932,11.475-15.749,79.9-30.085,86.53a443.735,443.735,0,0,0,28.68,42.446c-4.949-21.431,2.066-91.834,29.874-83,30.647,9.742-12.862,85.632-25.264,88.965q8.51,10.736,17.72,20.957c5.512,6.1,11.278,12.215,17.289,18.167-8.857-24.229-15.119-85.062,12.006-82.987,31.012,2.373,8.692,80.878-3.039,91.544A216.1,216.1,0,0,0,229.165,481c2.941,1.733-.23,5.988-3.148,4.268-12.714-7.5-24.567-16.876-35.68-27.062" transform="translate(0 81.128)" fill="#c8c1e8"/>
    <path id="Path_770" data-name="Path 770" d="M225.093,478.236A527.747,527.747,0,0,1,256.441,362.79a540.707,540.707,0,0,1,25.185-54.437,530.011,530.011,0,0,1,67.5-98.426q2.48-2.862,5-5.685c2.2-2.461-1.746-5.721-3.932-3.27a529.382,529.382,0,0,0-37.646,47.4A541.521,541.521,0,0,0,234.56,411.209a528.768,528.768,0,0,0-13.327,58.758q-.623,3.735-1.2,7.478c-.5,3.247,4.554,4.054,5.054.792" transform="translate(96.068 87.378)" fill="#dad4f8"/>
    <path id="Path_771" data-name="Path 771" d="M280.4,325.122c-3.754-39.082,6.591-96.978,7.52-135.457,1.024-42.461,6.956-88.112,42.853-112.728,9.363-6.419,21.307-11.209,34.55-9.436,18.609,2.491,34.856,17.7,41.165,33.374s4.646,31.625,1.638,46.578C393.434,220.476,347.646,284.169,280.4,325.122" transform="translate(122.082 29.313)" fill="#dad4f8"/>
    <path id="Path_772" data-name="Path 772" d="M274.429,395.718c-25.769-27.016-51.68-76.272-73.487-105.557-24.063-32.313-46.207-69.861-32.934-109.092,3.461-10.232,9.867-20.743,21.119-27.108,15.8-8.943,37.24-7.009,51.276,1.033s22.092,20.928,28.525,33.843c31.415,63.078,33.388,137.244,5.5,206.881" transform="translate(71.622 64.652)" fill="#dad4f8"/>
    <path id="Path_773" data-name="Path 773" d="M227.185,424.14c20.286-37.225,64.061-86.591,88.023-121.562,26.442-38.59,59.04-78.323,104.836-87.862,11.944-2.488,25.133-2.541,35.5,3.9,14.559,9.048,19.424,28.914,15.435,45.587s-15.025,30.706-26.62,43.334a378.015,378.015,0,0,1-217.172,116.6" transform="translate(99.203 93.078)" fill="#dad4f8"/>
    <path id="Path_774" data-name="Path 774" d="M217.763,482.683c24.459-6.719,48.19-19.415,69.978-33.277.954.645,2.343,1.531,4.112,2.52a105.525,105.525,0,0,0,15.032,6.949,135.958,135.958,0,0,0,21.372,5.982,161.5,161.5,0,0,0,24.646,2.751,158.131,158.131,0,0,0,24.772-1.125c3.982-.5,7.8-1.157,11.456-1.931,3.632-.764,7.07-1.724,10.276-2.654,3.187-.964,6.1-1.993,8.726-3.018,2.595-1.04,4.854-2.04,6.718-2.958a56.265,56.265,0,0,0,5.909-3.253,54.223,54.223,0,0,0-5.668-3.622c-1.817-1.049-4.024-2.2-6.548-3.4s-5.385-2.388-8.5-3.58c-3.123-1.129-6.5-2.322-10.09-3.3-3.6-1.007-7.37-1.921-11.3-2.675a156.006,156.006,0,0,0-24.639-2.711,160.321,160.321,0,0,0-24.771,1.162,133.1,133.1,0,0,0-21.734,4.584c-3.128.944-6,1.962-8.57,2.975,1.626-1.108,3.254-2.2,4.872-3.306a512.143,512.143,0,0,0,44.752-34.431c.74.45,1.6.955,2.6,1.526a104.282,104.282,0,0,0,15.045,6.942,134.818,134.818,0,0,0,21.382,5.992,159.647,159.647,0,0,0,24.642,2.751A154.32,154.32,0,0,0,437,420.454c3.969-.5,7.8-1.154,11.456-1.934,3.635-.756,7.088-1.717,10.279-2.654,3.2-.961,6.1-1.991,8.719-3,2.582-1.043,4.86-2.049,6.731-2.968a55.926,55.926,0,0,0,5.9-3.248,54.464,54.464,0,0,0-5.659-3.626c-1.835-1.044-4.04-2.2-6.545-3.4-2.529-1.19-5.383-2.395-8.515-3.583-3.11-1.136-6.485-2.307-10.077-3.31s-7.382-1.9-11.3-2.664a157.032,157.032,0,0,0-24.639-2.7A159.775,159.775,0,0,0,388.58,388.5a135.518,135.518,0,0,0-21.738,4.6c-3.34,1.01-6.383,2.1-9.088,3.151q20.488-18.4,39.117-38.715c.9.221,1.914.474,3.095.727a108.838,108.838,0,0,0,16.448,2.054,133.242,133.242,0,0,0,22.194-.767,158.244,158.244,0,0,0,24.318-4.839,154.344,154.344,0,0,0,23.271-8.56c3.629-1.672,7.086-3.448,10.32-5.3,3.248-1.82,6.242-3.774,9-5.632,2.735-1.908,5.227-3.754,7.393-5.518s4.043-3.412,5.518-4.86a53.025,53.025,0,0,0,4.645-4.886,55.646,55.646,0,0,0-6.5-1.746c-2.044-.434-4.478-.859-7.264-1.237-2.767-.378-5.841-.664-9.177-.858-3.32-.122-6.9-.23-10.618-.089s-7.606.409-11.584.862a159.577,159.577,0,0,0-47.558,13.482A134.64,134.64,0,0,0,411.4,341.079q15.027-17.6,28.808-36.267a107.789,107.789,0,0,0,11.495-8.35,135.63,135.63,0,0,0,15.777-15.631,156.444,156.444,0,0,0,14.589-20.053A154.5,154.5,0,0,0,493.382,238.7c1.527-3.688,2.847-7.341,3.987-10.887s2.006-7.017,2.789-10.253c.736-3.25,1.287-6.3,1.685-9.067s.654-5.227.764-7.317a50.024,50.024,0,0,0,.089-6.737,55.692,55.692,0,0,0-5.952,3.13c-1.809,1.063-3.889,2.4-6.178,4.01s-4.768,3.482-7.323,5.613c-2.543,2.152-5.237,4.491-7.876,7.124-2.645,2.618-5.307,5.456-7.9,8.484a158.142,158.142,0,0,0-14.576,20.074,163.307,163.307,0,0,0-11.253,22.092,135.228,135.228,0,0,0-6.767,21.152,106.87,106.87,0,0,0-2.484,16.381c-.095,1.409-.129,2.615-.144,3.63a628.208,628.208,0,0,1-47.993,56.748,112.323,112.323,0,0,0,4.329-13.768A136.985,136.985,0,0,0,392,327.171a161.477,161.477,0,0,0-.171-24.788,155.817,155.817,0,0,0-4.031-24.459c-.977-3.9-2.062-7.63-3.268-11.154-1.187-3.524-2.536-6.833-3.833-9.9-1.361-3.05-2.714-5.827-4.036-8.294-1.339-2.46-2.6-4.594-3.74-6.353a53.679,53.679,0,0,0-3.9-5.458,51.612,51.612,0,0,0-2.938,6.047c-.835,1.928-1.708,4.247-2.61,6.9-.869,2.656-1.741,5.627-2.552,8.856-.743,3.241-1.531,6.732-2.095,10.422-.569,3.668-1.031,7.535-1.326,11.518a156.458,156.458,0,0,0,.211,24.8,160.143,160.143,0,0,0,4.064,24.462,133.743,133.743,0,0,0,7.124,21.041,105.16,105.16,0,0,0,7.732,14.635c.789,1.238,1.51,2.3,2.12,3.115a526.567,526.567,0,0,1-55.572,49.311c.322-.715.678-1.514,1.066-2.418a108.4,108.4,0,0,0,5.1-15.753,135.936,135.936,0,0,0,3.442-21.932,159.767,159.767,0,0,0-.175-24.807,156.328,156.328,0,0,0-4.031-24.475c-.96-3.856-2.059-7.606-3.268-11.121-1.184-3.518-2.54-6.831-3.834-9.9-1.35-3.056-2.7-5.847-4.036-8.3s-2.579-4.593-3.728-6.359a55.848,55.848,0,0,0-3.921-5.458,53.152,53.152,0,0,0-2.937,6.056c-.817,1.917-1.694,4.24-2.595,6.893-.878,2.655-1.756,5.627-2.549,8.868-.776,3.23-1.556,6.731-2.092,10.4-.59,3.681-1.049,7.551-1.335,11.541a160.023,160.023,0,0,0,4.267,49.262,134.67,134.67,0,0,0,7.123,21.023,107.528,107.528,0,0,0,7.738,14.645c1.1,1.737,2.079,3.109,2.766,4.037q-11.352,8.57-23.234,16.445c-9.718,6.426-19.858,12.854-30.328,18.789.432-.894.935-1.978,1.461-3.268a102.28,102.28,0,0,0,5.106-15.75,130.729,130.729,0,0,0,3.445-21.929,160.206,160.206,0,0,0-4.176-49.263c-.965-3.895-2.08-7.633-3.291-11.156-1.174-3.517-2.539-6.837-3.83-9.9-1.34-3.037-2.705-5.837-4.034-8.294s-2.6-4.592-3.725-6.336a54.8,54.8,0,0,0-3.919-5.472A56.113,56.113,0,0,0,250.71,330c-.8,1.919-1.691,4.248-2.579,6.89-.892,2.658-1.744,5.627-2.567,8.866-.753,3.227-1.542,6.747-2.072,10.409-.588,3.681-1.053,7.54-1.34,11.528a159.365,159.365,0,0,0,4.267,49.275,136.065,136.065,0,0,0,7.114,21.016,106.6,106.6,0,0,0,7.759,14.648c1.121,1.781,2.112,3.168,2.814,4.1-15.367,8.545-31.446,15.927-48,20.471-3.533.99-1.879,6.453,1.658,5.479" transform="translate(93.508 84.906)" fill="#c8c1e8"/>
    <path id="Path_775" data-name="Path 775" d="M143.44,46.709a12.335,12.335,0,0,1,12.335,12.335,4.112,4.112,0,1,0,8.225,0,20.559,20.559,0,0,0-20.56-20.559,4.112,4.112,0,1,0,0,8.223" transform="translate(60.839 16.805)" fill="#ea5455"/>
    <path id="Path_776" data-name="Path 776" d="M143.44,35.26a28.784,28.784,0,0,1,28.784,28.784,4.112,4.112,0,1,0,8.223,0A37.007,37.007,0,0,0,143.44,27.037a4.112,4.112,0,1,0,0,8.223" transform="translate(60.839 11.806)" fill="#ea5455"/>
    <path id="Path_777" data-name="Path 777" d="M191.917,84.233a4.116,4.116,0,0,0-2.961-2.672l-24.673-5.633A4.107,4.107,0,0,0,160.5,77c-.576.534-.616.575-3.29,5.673a40.745,40.745,0,0,1-20.024-20.106c5.221-2.632,5.261-2.632,5.8-3.25a4.12,4.12,0,0,0,1.07-3.783L138.42,31.149a4.117,4.117,0,0,0-2.672-2.961,15.535,15.535,0,0,0-2.961-.74,16.092,16.092,0,0,0-3.165-.411,18.914,18.914,0,0,0-18.915,18.915,63.4,63.4,0,0,0,63.322,63.322,18.914,18.914,0,0,0,18.915-18.914,19.638,19.638,0,0,0-.247-3.126,18.032,18.032,0,0,0-.78-3" transform="translate(48.342 11.806)" fill="#454975"/>
    <path id="Path_778" data-name="Path 778" d="M328.62,63.813H278.1a19.037,19.037,0,1,1,0-38.074H328.62a19.037,19.037,0,1,1,0,38.074" transform="translate(113.122 11.239)" fill="#454975"/>
    <path id="Path_779" data-name="Path 779" d="M313.342,57.591a4.207,4.207,0,1,1-4.207-4.207,4.207,4.207,0,0,1,4.207,4.207" transform="translate(133.151 23.311)" fill="#454975"/>
    <path id="Path_780" data-name="Path 780" d="M285.562,40.309a5.52,5.52,0,1,1-5.52-5.52,5.519,5.519,0,0,1,5.52,5.52" transform="translate(119.873 15.191)" fill="#fff"/>
    <path id="Path_781" data-name="Path 781" d="M297.093,40.309a5.52,5.52,0,1,1-5.52-5.52,5.519,5.519,0,0,1,5.52,5.52" transform="translate(124.908 15.191)" fill="#fff"/>
    <path id="Path_782" data-name="Path 782" d="M308.624,40.309a5.52,5.52,0,1,1-5.52-5.52,5.519,5.519,0,0,1,5.52,5.52" transform="translate(129.944 15.191)" fill="#fff"/>
    <path id="Path_783" data-name="Path 783" d="M262,94.6h50.522a19.037,19.037,0,1,0,0-38.074H262A19.037,19.037,0,0,0,262,94.6" transform="translate(106.095 24.683)" fill="#ea5455"/>
    <path id="Path_784" data-name="Path 784" d="M252.911,88.379a4.207,4.207,0,1,0,4.207-4.207,4.207,4.207,0,0,0-4.207,4.207" transform="translate(110.437 36.755)" fill="#ea5455"/>
    <path id="Path_785" data-name="Path 785" d="M269.469,71.219a5.52,5.52,0,1,1-5.52-5.52,5.519,5.519,0,0,1,5.52,5.52" transform="translate(112.846 28.688)" fill="#fff"/>
    <path id="Path_786" data-name="Path 786" d="M281,71.219a5.52,5.52,0,1,1-5.52-5.52,5.519,5.519,0,0,1,5.52,5.52" transform="translate(117.881 28.688)" fill="#fff"/>
    <path id="Path_787" data-name="Path 787" d="M292.53,71.219a5.52,5.52,0,1,1-5.52-5.52,5.519,5.519,0,0,1,5.52,5.52" transform="translate(122.916 28.688)" fill="#fff"/>
    <path id="Path_788" data-name="Path 788" d="M214.263,169.853a22.4,22.4,0,0,1-8.137,10.48c-4.4,3.03-9.667,4-14.431,2.155-8.481-3.28-12.12-14.275-8.137-24.537s14.072-15.914,22.553-12.635a.532.532,0,0,1,.141.063c8.387,3.357,11.963,14.275,8.012,24.474" transform="translate(79.448 63.048)" fill="#a6afe2"/>
    <path id="Path_789" data-name="Path 789" d="M63.942,152.177c8.876,13.528,34.718,52.84,49.217,74.148-10.992,20.57-34.007,31.949-34.007,31.949s-11.9-31.841-18.167-49.075-11.121-30.651-10.933-39.464a1.862,1.862,0,0,1,1.7-1.764l-.947-1.715a4.15,4.15,0,0,1,5.915-5.489l-1.756-2.84a5.33,5.33,0,0,1,8.975-5.748" transform="translate(21.854 65.406)" fill="#ffb8b8"/>
    <path id="Path_790" data-name="Path 790" d="M65.464,196.033c.272-10.7,9.853-19.152,13.52-21.507l1.276,1.985c-4.692,3.011-12.22,10.993-12.437,19.582Z" transform="translate(28.586 76.209)" fill="#f18b8b"/>
    <rect id="Rectangle_1358" data-name="Rectangle 1358" width="1.181" height="27.469" transform="translate(77.697 226.737) rotate(-30.246)" fill="#f18b8b"/>
    <path id="Path_791" data-name="Path 791" d="M61.568,185.963l-11-22.912,1.063-.509,11,22.912Z" transform="translate(22.083 70.976)" fill="#f18b8b"/>
    <path id="Path_792" data-name="Path 792" d="M253.194,182.029l.053.9.526,27.613,1.343,70.126L171.165,258.1,211.6,231.491l-.405-10.558-1.372-36.681a21.714,21.714,0,0,1,43.37-2.224" transform="translate(74.741 70.58)" fill="#ffb8b8"/>
    <path id="Path_793" data-name="Path 793" d="M241.45,182.029l.053.9.526,27.613a132.709,132.709,0,0,1-13.377,6.152c-7.282,2.922-13.753,4.967-21.623,4.988a26.716,26.716,0,0,1-7.577-.75l-1.372-36.681a21.714,21.714,0,0,1,43.37-2.224" transform="translate(86.486 70.58)" fill="#f18b8b"/>
    <path id="Path_794" data-name="Path 794" d="M265.461,186.256c-6.215,15.062-10.911,20.918-16.017,19.3-14.722,25.215-34.98,34.716-53.052,29.811-14.663-3.941-13.91-25.3-9.8-44.647.975-4.465,2.1-8.864,3.257-12.888a219.784,219.784,0,0,1,9.459-25.652c-11.611-35.99,23.244-43.88,46.249-17.652a11.377,11.377,0,0,1,3.913-1.929c6.074-1.72,12.9,2.8,18.01,19.56,10.522,11.535,4.23,19.03-2.023,34.095" transform="translate(80.355 51.984)" fill="#454975"/>
    <path id="Path_795" data-name="Path 795" d="M238.552,147.074c-1.906-3.539-5.446-7.922-11.7-16.662a11.377,11.377,0,0,1,3.913-1.929c3.014,5.658,7.31,14.477,7.782,18.592" transform="translate(99.06 56.103)" fill="#3b3e63"/>
    <path id="Path_796" data-name="Path 796" d="M259.867,184.431c-7.057,14.209-17.987,7.821-18.97,2.118-5.715,8.327-9.427,10.47-11.973,10.736s-9.631-4.205-12.666-5.191c-3.074-1.021-18.4,3.438-30.406-8.346l-.04-.036c.976-4.465,2.1-8.864,3.257-12.888a219.778,219.778,0,0,1,9.459-25.652c6.511-8.262,26.384-24.182,49.634,16.8-1.862,7.909-3.192,13.977-4.87,18.033,11.344-13.713,23.635-9.742,16.575,4.429" transform="translate(81.138 58.995)" fill="#ffb8b8"/>
    <path id="Path_797" data-name="Path 797" d="M227.038,170.381a11.282,11.282,0,0,1,2.294-3.707,11.8,11.8,0,0,1,3.494-2.731,8.842,8.842,0,0,1,4.462-1.082,4.517,4.517,0,0,1,2.333.688,2.234,2.234,0,0,1,1.113,2.027,2.174,2.174,0,0,0-1.58-.967,4.679,4.679,0,0,0-1.763.091,14.763,14.763,0,0,0-3.484,1.339,33.282,33.282,0,0,0-3.372,2.019c-1.136.73-2.218,1.567-3.5,2.323" transform="translate(99.139 71.112)" fill="#f18b8b"/>
    <path id="Path_798" data-name="Path 798" d="M228.035,167.436a4.034,4.034,0,0,1,2.166-1.3,5.326,5.326,0,0,1,2.609-.013,3.9,3.9,0,0,1,2.244,1.483,3.039,3.039,0,0,1,.445,2.524,3.917,3.917,0,0,0-2.984-2.865,7.623,7.623,0,0,0-2.177-.223,8.279,8.279,0,0,0-2.3.394" transform="translate(99.575 72.472)" fill="#f18b8b"/>
    <path id="Path_799" data-name="Path 799" d="M204.506,156.879C197.462,166.1,189.1,170,188.047,172.46s2.595,7.282,11.689,8.936c5.382-3.411,1.027-8.995,4.77-24.517" transform="translate(82.037 68.503)" fill="#f18b8b"/>
    <path id="Path_800" data-name="Path 800" d="M213.3,160.634c.129,2.162-1.191,4-2.951,4.1s-3.29-1.562-3.421-3.722,1.192-4,2.951-4.1,3.291,1.56,3.421,3.722" transform="translate(90.353 68.515)" fill="#454975"/>
    <path id="Path_801" data-name="Path 801" d="M197.428,159.38c-.407,2.126-2.141,3.582-3.872,3.25s-2.8-2.323-2.4-4.451,2.141-3.582,3.872-3.25,2.8,2.325,2.4,4.451" transform="translate(83.435 67.631)" fill="#454975"/>
    <path id="Path_802" data-name="Path 802" d="M212.585,145.926c6.346.181,9.351,7.686,10.312,11.763.473,2.008-.858,2.553-1.932.678-1.322-2.307-4.9-6.492-8.937-8.094-2.859-1.132-1.906-4.418.557-4.347" transform="translate(91.818 63.72)" fill="#454975"/>
    <path id="Path_803" data-name="Path 803" d="M203.093,143.962c-5.353-2.2-9.84,1.61-12.105,4.791-1.2,1.681-.3,3.35,1.506,2.169,2.227-1.452,4.79-3.248,9.117-2.836,3.062.293,3.764-3.189,1.483-4.125" transform="translate(83.159 62.579)" fill="#454975"/>
    <path id="Path_804" data-name="Path 804" d="M159.033,430.926c19.253,6.761,39.1,10.848,72.083,7.739,19.263-62.22,22.36-211.677,22.992-220.008-15.107,5.807-33.752,9.186-41.639-9.187-37.779,42.6-53.658,107.682-53.437,221.456" transform="translate(69.443 91.468)" fill="#fff"/>
    <path id="Path_805" data-name="Path 805" d="M241.949,204.783c-20.411,11.784-33.269,47.564-36.659,102.229s-7.588,104.622-6.2,120.924,6.245,42.639,35.47,44.982,72.327,3.855,72.327,3.855-34.364-210.951-35.53-223.581-5.383-32.431-29.406-48.408" transform="translate(86.816 89.421)" fill="#ea5455"/>
    <path id="Path_806" data-name="Path 806" d="M430.192,383.77c-13.449-8.995-52.532-35.185-73.709-49.871-20.666,10.81-32.249,33.724-32.249,33.724s31.736,12.181,48.913,18.6S403.7,397.615,412.511,397.5a1.86,1.86,0,0,0,1.78-1.687l1.707.963a4.151,4.151,0,0,0,5.543-5.867l2.824,1.781a5.329,5.329,0,0,0,5.827-8.923" transform="translate(141.581 145.801)" fill="#ffb8b8"/>
    <path id="Path_807" data-name="Path 807" d="M354.626,339.983l48.105,12.394a5.311,5.311,0,1,1-2.664,10.282l-28.745-7.489s-22.765-3.909-16.7-15.187" transform="translate(154.403 148.458)" fill="#ffb8b8"/>
    <path id="Path_808" data-name="Path 808" d="M365.762,365.994a19.772,19.772,0,0,1-5.757.98l-.037-2.359c8.59-.142,16.635-7.6,19.688-12.26l1.975,1.29c-1.94,2.967-7.945,9.8-15.869,12.349" transform="translate(157.185 153.86)" fill="#f18b8b"/>
    <rect id="Rectangle_1359" data-name="Rectangle 1359" width="1.18" height="27.469" transform="matrix(0.511, -0.859, 0.859, 0.511, 538.944, 523.545)" fill="#f18b8b"/>
    <rect id="Rectangle_1360" data-name="Rectangle 1360" width="1.178" height="25.413" transform="translate(532.401 531.369) rotate(-63.857)" fill="#f18b8b"/>
    <path id="Path_809" data-name="Path 809" d="M228.843,204.783c26.394,18.685,34.573,32.122,42.517,48.441s37.778,69.83,46.651,81.179,80.133,55.876,80.133,55.876l-38.059,42.015s-72.949-32.137-86.966-47.272-45-71.428-44.277-180.239" transform="translate(99.922 89.421)" fill="#ea5455"/>
    <path id="Path_810" data-name="Path 810" d="M224.576,207.165l.269,6.989c-15.935,17.529-28.284,48.4-35.1,88.019-7.742,44.871-10.719,92.583-11.024,132.074-.18,27.167-25.284,26.827-37.705,17.553,2.639-35.751,12.982-122.059,18.593-148.422,5.379-25.257,16.269-98.641,64.964-96.213" transform="translate(61.577 90.436)" fill="#ea5455"/>
    <path id="Path_811" data-name="Path 811" d="M258.17,209.549l.082,1.991c-25.208,9.874-38.656,57.573-38.656,57.573s-15.7,49.285-30.108,60.676c-27.963,22.109-48.8,16.246-64.549-.477-8.315-8.83-60.8-92.586-60.8-92.586l42.926-34.048,48.617,65.3s41.247-29.443,56.794-40.883c14.03-10.371,25.981-17.717,45.69-17.543" transform="translate(28.009 88.502)" fill="#ea5455"/>
    <rect id="Rectangle_1361" data-name="Rectangle 1361" width="2.361" height="72.829" transform="matrix(0.932, -0.363, 0.363, 0.932, 334.198, 392.081)" fill="#bb4344"/>
    <rect id="Rectangle_1362" data-name="Rectangle 1362" width="38.15" height="2.36" transform="translate(218.698 399.646) rotate(-72.459)" fill="#bb4344"/>
    <path id="Path_812" data-name="Path 812" d="M75.945,183.75,31.874,139.679v37.748A13.222,13.222,0,0,0,45.1,190.649h61.7a13.222,13.222,0,0,0,13.22-13.222V139.679Z" transform="translate(13.918 60.993)" fill="#3e4169"/>
    <path id="Path_813" data-name="Path 813" d="M120.018,145.618V139.3a13.222,13.222,0,0,0-13.223-13.222h-61.7A13.222,13.222,0,0,0,31.874,139.3v6.323l44.071,44.071Z" transform="translate(13.918 55.052)" fill="#454975"/>
    <path id="Path_814" data-name="Path 814" d="M108.528,136.968a16.24,16.24,0,1,1-16.24-16.24,16.24,16.24,0,0,1,16.24,16.24" transform="translate(33.207 52.718)" fill="#ea5455"/>
    <rect id="Rectangle_1363" data-name="Rectangle 1363" width="28.942" height="6.462" transform="translate(55.868 222.357)" fill="#a6afe2"/>
    <path id="Path_815" data-name="Path 815" d="M94.781,211.256,82.812,163.043a5.311,5.311,0,1,0-10.305,2.573l7.235,28.809s3.708,22.8,15.039,16.831" transform="translate(31.591 69.434)" fill="#ffb8b8"/>
    <path id="Path_816" data-name="Path 816" d="M206.019,178.819c-.016.078-.012.154-.027.231-1.754,13.939-18.359,15.357-19.586-1.661a23.091,23.091,0,0,1-.085-2.8c4.586.172,15.615,2.98,19.7,4.234" transform="translate(81.355 76.235)" fill="#f18b8b"/>
    <path id="Path_817" data-name="Path 817" d="M206.019,178.819c-.016.078-.012.154-.027.231a30.964,30.964,0,0,1-6.09.886c-5.448.276-10.366-.744-13.5-2.547a23.091,23.091,0,0,1-.085-2.8c4.586.172,15.615,2.98,19.7,4.234" transform="translate(81.355 76.235)" fill="#f3edff"/>
    <path id="Path_818" data-name="Path 818" d="M252.45,178.78a22.391,22.391,0,0,1-8.137,10.479c-4.4,3.03-9.667,4-14.431,2.156-8.481-3.28-12.12-14.275-8.137-24.537s14.072-15.914,22.553-12.635a.531.531,0,0,1,.141.063c8.387,3.357,11.963,14.275,8.012,24.474" transform="translate(96.123 66.946)" fill="#a6afe2"/>
    <path id="Path_819" data-name="Path 819" d="M237.367,166c6.469-9.1-.866-26.685-9.277-34.922,0,0-3.041-3.319-4.063-4.129,1.893.03,2.585.361,4.507,1.833s27.5,16.935,17.713,40.65c0,0-8.37-1.373-8.88-3.432" transform="translate(97.825 55.435)" fill="#a6afe2"/>
    <path id="Path_820" data-name="Path 820" d="M249.994,178.478a22.391,22.391,0,0,1-8.137,10.479c-11.854,2.671-21.162-9.215-13.041-23.224,3.56-6.137,8.292-9.9,13.166-11.729,8.387,3.357,11.963,14.275,8.012,24.474" transform="translate(98.579 67.248)" fill="#bbc3ed"/>
    <path id="Path_821" data-name="Path 821" d="M236.346,173.913c-7.172,7.172-21.25,7.94-32.381,8.121a2.059,2.059,0,1,0,.148,4.115c16.921-.94,27.439-2.008,34.621-9.708Z" transform="translate(88.178 75.941)" fill="#a6afe2"/>
    <path id="Path_822" data-name="Path 822" d="M209.069,182.265a4.356,4.356,0,1,1-4.356-4.356,4.356,4.356,0,0,1,4.356,4.356" transform="translate(87.489 77.686)" fill="#ea5455"/>
    <path id="Path_823" data-name="Path 823" d="M129,84.46a16.071,16.071,0,1,1-16.071-16.071A16.07,16.07,0,0,1,129,84.46" transform="translate(42.293 29.863)" fill="#dad4f8"/>
    <path id="Path_824" data-name="Path 824" d="M229.717,46.391a6.593,6.593,0,1,1-6.593-6.593,6.594,6.594,0,0,1,6.593,6.593" transform="translate(94.551 17.378)" fill="#dad4f8"/>
    <path id="Path_825" data-name="Path 825" d="M180.824,110.507a4.709,4.709,0,1,1-4.709-4.709,4.71,4.71,0,0,1,4.709,4.709" transform="translate(74.846 46.198)" fill="#dad4f8"/>
    <path id="Path_826" data-name="Path 826" d="M272.642,214.185A5.18,5.18,0,1,1,267.461,209a5.181,5.181,0,0,1,5.181,5.181" transform="translate(114.529 91.264)" fill="#dad4f8"/>
    <path id="Path_827" data-name="Path 827" d="M352.36,285.428v99.753a17.846,17.846,0,0,1-17.852,17.851H157.492a17.842,17.842,0,0,1-17.836-17.851V285.428a17.843,17.843,0,0,1,17.836-17.852H334.508a17.847,17.847,0,0,1,17.852,17.852" transform="translate(60.983 116.841)" fill="#454975"/>
    <path id="Path_828" data-name="Path 828" d="M266.329,384.662H202.216l-2.28-75.014h39.482Z" transform="translate(87.305 135.212)" fill="#393c61"/>
    <path id="Path_829" data-name="Path 829" d="M302.623,416.284H269.155L255.323,309.653H215.839L202.008,416.284H168.54a5.009,5.009,0,0,0-5.01,5.008v4.925h144.1v-4.925a5.009,5.009,0,0,0-5.008-5.008m-52.582-53.19a14.461,14.461,0,0,1-28.921,0v-6.035a14.461,14.461,0,1,1,28.921,0Z" transform="translate(71.408 135.214)" fill="#a6afe2"/>
    <path id="Path_830" data-name="Path 830" d="M220.754,345.34c-33.342,0-21.714,41.216-21.714,64.312" transform="translate(86.056 150.797)" fill="none" stroke="#f3edff" stroke-miterlimit="10" stroke-width="2.174"/>
    <path id="Path_831" data-name="Path 831" d="M336.557,124.775a83.493,83.493,0,0,0-21.125,2.622,7.414,7.414,0,0,0-5.544,7.165V190.03a7.385,7.385,0,0,0,8.959,7.208,85.3,85.3,0,0,1,17.71-1.81,79.947,79.947,0,0,1,26.689,4.337V129.112a79.947,79.947,0,0,0-26.689-4.337" transform="translate(135.317 54.485)" fill="#454975"/>
    <path id="Path_832" data-name="Path 832" d="M373.717,124.775a79.947,79.947,0,0,0-26.689,4.337v70.652a79.946,79.946,0,0,1,26.689-4.337,85.292,85.292,0,0,1,17.71,1.81,7.385,7.385,0,0,0,8.959-7.208V134.562a7.414,7.414,0,0,0-5.544-7.165,83.493,83.493,0,0,0-21.125-2.622" transform="translate(151.534 54.485)" fill="#3e4169"/>
    <path id="Path_833" data-name="Path 833" d="M538.244,397.629H31.431a3.47,3.47,0,1,1,0-6.939H538.244a3.47,3.47,0,1,1,0,6.939" transform="translate(12.21 170.6)" fill="#454975"/>
  </g>
</svg>
