<svg xmlns="http://www.w3.org/2000/svg" width="17.708" height="11.953" viewBox="0 0 17.708 11.953">
  <path id="Icon_zocial-email" data-name="Icon zocial-email" d="M.072,14.962V5.127q0-.017.051-.324L5.912,9.754.14,15.3a1.447,1.447,0,0,1-.068-.342ZM.84,4.119a.736.736,0,0,1,.29-.051h15.59a.967.967,0,0,1,.307.051L11.223,9.088l-.768.615L8.934,10.95,7.415,9.7l-.768-.615ZM.857,15.97,6.68,10.386l2.254,1.827,2.254-1.827,5.823,5.584a.82.82,0,0,1-.29.051H1.131a.773.773,0,0,1-.273-.051Zm11.1-6.216L17.728,4.8a1.019,1.019,0,0,1,.051.324v9.836a1.309,1.309,0,0,1-.051.342Z" transform="translate(-0.072 -4.068)" fill="#696969"/>
</svg>
