<svg id="Companies_-_PayPal" data-name="Companies - PayPal" xmlns="http://www.w3.org/2000/svg" width="75.995" height="18.29" viewBox="0 0 75.995 18.29">
  <path id="Path_760" data-name="Path 760" d="M28.416,4.09H24.21a.589.589,0,0,0-.38.138.574.574,0,0,0-.2.348L21.932,15.2a.34.34,0,0,0,.009.148.344.344,0,0,0,.071.13.35.35,0,0,0,.12.089.355.355,0,0,0,.147.031h2.008a.589.589,0,0,0,.38-.138.574.574,0,0,0,.2-.348l.459-2.867a.574.574,0,0,1,.2-.348.59.59,0,0,1,.38-.138h1.331c2.77,0,4.369-1.321,4.787-3.939a3.156,3.156,0,0,0-.536-2.676A3.934,3.934,0,0,0,28.416,4.09ZM28.9,7.972c-.23,1.487-1.383,1.487-2.5,1.487h-.635l.445-2.778a.345.345,0,0,1,.118-.209.354.354,0,0,1,.228-.083h.291c.759,0,1.476,0,1.846.427A1.365,1.365,0,0,1,28.9,7.972Zm12.086-.048H38.973a.354.354,0,0,0-.228.083.344.344,0,0,0-.118.209l-.089.555-.141-.2a2.89,2.89,0,0,0-2.379-.832,4.608,4.608,0,0,0-4.5,3.992,3.706,3.706,0,0,0,.75,3.049,3.174,3.174,0,0,0,2.536,1.01A3.876,3.876,0,0,0,37.6,14.651l-.09.552a.34.34,0,0,0,.009.148.345.345,0,0,0,.071.131.351.351,0,0,0,.12.09.356.356,0,0,0,.147.032h1.814a.589.589,0,0,0,.38-.138.573.573,0,0,0,.2-.349l1.088-6.793a.34.34,0,0,0-.079-.278.349.349,0,0,0-.119-.089A.354.354,0,0,0,40.986,7.924Zm-2.807,3.863a2.235,2.235,0,0,1-2.272,1.9,1.711,1.711,0,0,1-1.352-.535,1.669,1.669,0,0,1-.316-1.394A2.244,2.244,0,0,1,36.5,9.842a1.581,1.581,0,0,1,1.684,1.945ZM51.712,7.924H49.688a.594.594,0,0,0-.274.067.584.584,0,0,0-.21.185l-2.791,4.052L45.23,8.335a.578.578,0,0,0-.211-.3.592.592,0,0,0-.349-.114H42.681a.354.354,0,0,0-.16.038.35.35,0,0,0-.125.106.342.342,0,0,0-.047.313l2.229,6.447-2.1,2.916a.342.342,0,0,0-.026.359.347.347,0,0,0,.129.136.354.354,0,0,0,.182.05h2.021a.59.59,0,0,0,.271-.065.582.582,0,0,0,.209-.182L52,8.467a.341.341,0,0,0,.023-.357.347.347,0,0,0-.129-.135A.354.354,0,0,0,51.712,7.924Z" transform="translate(0)" fill="#022273"/>
  <path id="Path_761" data-name="Path 761" d="M58.412,4.09H54.206a.589.589,0,0,0-.379.138.574.574,0,0,0-.2.348L51.928,15.2a.342.342,0,0,0,.08.278.348.348,0,0,0,.119.089.354.354,0,0,0,.146.032h2.158a.412.412,0,0,0,.265-.1.4.4,0,0,0,.138-.244l.483-3.013a.574.574,0,0,1,.2-.348.59.59,0,0,1,.38-.138h1.331c2.771,0,4.369-1.321,4.787-3.939a3.154,3.154,0,0,0-.537-2.676A3.931,3.931,0,0,0,58.412,4.09ZM58.9,7.972c-.229,1.487-1.382,1.487-2.5,1.487h-.634l.446-2.778a.342.342,0,0,1,.118-.209.352.352,0,0,1,.227-.083h.291c.759,0,1.476,0,1.846.427A1.365,1.365,0,0,1,58.9,7.972Zm12.085-.048H68.969a.352.352,0,0,0-.228.083.343.343,0,0,0-.118.209l-.089.555-.141-.2a2.889,2.889,0,0,0-2.378-.832,4.607,4.607,0,0,0-4.5,3.992,3.708,3.708,0,0,0,.75,3.049,3.176,3.176,0,0,0,2.537,1.01,3.876,3.876,0,0,0,2.787-1.136l-.09.552a.342.342,0,0,0,.08.279.35.35,0,0,0,.12.089.355.355,0,0,0,.147.032h1.813a.589.589,0,0,0,.38-.138.573.573,0,0,0,.2-.348l1.089-6.793a.342.342,0,0,0-.009-.148.346.346,0,0,0-.071-.13.35.35,0,0,0-.12-.089A.355.355,0,0,0,70.982,7.924Zm-2.807,3.863a2.234,2.234,0,0,1-2.272,1.9,1.713,1.713,0,0,1-1.352-.535,1.673,1.673,0,0,1-.316-1.394,2.245,2.245,0,0,1,2.257-1.91,1.711,1.711,0,0,1,1.343.541A1.691,1.691,0,0,1,68.175,11.787Zm5.181-7.405L71.63,15.2a.341.341,0,0,0,.079.278.348.348,0,0,0,.12.089.354.354,0,0,0,.146.032h1.735a.581.581,0,0,0,.577-.487l1.7-10.628a.342.342,0,0,0-.08-.278.35.35,0,0,0-.12-.089.355.355,0,0,0-.146-.032H73.7a.354.354,0,0,0-.227.083A.345.345,0,0,0,73.356,4.382Z" transform="translate(0)" fill="#167fc4"/>
  <path id="Path_762" data-name="Path 762" d="M4.468,17.669l.322-2.013-.716-.016H.652L3.03.783A.191.191,0,0,1,3.1.666.2.2,0,0,1,3.223.621H8.991c1.915,0,3.236.393,3.926,1.168a2.65,2.65,0,0,1,.629,1.162,4.135,4.135,0,0,1,0,1.6l-.007.047v.41l.323.181a2.127,2.127,0,0,1,1.186,1.667,4.9,4.9,0,0,1-.076,1.7,5.948,5.948,0,0,1-.708,1.929A3.988,3.988,0,0,1,13.146,11.7a4.583,4.583,0,0,1-1.512.672,7.639,7.639,0,0,1-1.889.215H9.3a1.373,1.373,0,0,0-.877.318,1.335,1.335,0,0,0-.457.8l-.034.181L7.36,17.442l-.026.13a.112.112,0,0,1-.036.076.1.1,0,0,1-.059.021Z" transform="translate(0)" fill="#022273"/>
  <path id="Path_763" data-name="Path 763" d="M14.174,4.647q-.026.163-.059.333c-.761,3.849-3.363,5.179-6.687,5.179H5.736a.818.818,0,0,0-.812.686l-.866,5.416L3.812,17.8a.42.42,0,0,0,.011.182.425.425,0,0,0,.087.161.432.432,0,0,0,.148.11.437.437,0,0,0,.181.039h3a.719.719,0,0,0,.713-.6l.03-.15L8.549,14l.036-.194a.719.719,0,0,1,.713-.6h.449c2.908,0,5.184-1.164,5.85-4.531A3.814,3.814,0,0,0,15,5.271,2.866,2.866,0,0,0,14.174,4.647Z" transform="translate(0)" fill="#167fc4"/>
  <path id="Path_764" data-name="Path 764" d="M13.376,4.334a6.078,6.078,0,0,0-.74-.162,9.534,9.534,0,0,0-1.492-.107H6.624a.727.727,0,0,0-.469.171.708.708,0,0,0-.244.431l-.962,6-.028.175a.806.806,0,0,1,.277-.491.828.828,0,0,1,.535-.195H7.426c3.324,0,5.926-1.33,6.687-5.179.023-.114.042-.225.059-.333a4.085,4.085,0,0,0-.625-.26Q13.462,4.359,13.376,4.334Z" transform="translate(0)" fill="#022273"/>
  <path id="Path_765" data-name="Path 765" d="M5.912,4.666a.706.706,0,0,1,.243-.431.725.725,0,0,1,.469-.17h4.521a9.533,9.533,0,0,1,1.492.107,6.071,6.071,0,0,1,.911.214,4.143,4.143,0,0,1,.625.26,3.6,3.6,0,0,0-.782-3.268C12.531.413,10.978,0,8.991,0H3.223a.821.821,0,0,0-.815.687L.006,15.7a.483.483,0,0,0,.112.393.5.5,0,0,0,.169.126.5.5,0,0,0,.207.045H4.056L4.95,10.67Z" transform="translate(0)" fill="#022273"/>
</svg>
