<svg xmlns="http://www.w3.org/2000/svg" xmlns:xlink="http://www.w3.org/1999/xlink" width="49" height="16" viewBox="0 0 49 16">
  <defs>
    <clipPath id="clip-path">
      <rect id="Rectangle_513" data-name="Rectangle 513" width="49" height="16" fill="#fff"/>
    </clipPath>
  </defs>
  <g id="Group_520" data-name="Group 520" clip-path="url(#clip-path)">
    <path id="Path_752" data-name="Path 752" d="M21.233,17.769H17.264L19.746,2.281h3.969Z" transform="translate(0 -2)" fill="#00579f"/>
    <path id="Path_753" data-name="Path 753" d="M35.622,2.659A9.706,9.706,0,0,0,32.062,2c-3.92,0-6.68,2.109-6.7,5.124-.033,2.225,1.976,3.46,3.479,4.2,1.536.758,2.058,1.253,2.058,1.928-.016,1.038-1.241,1.516-2.384,1.516a7.843,7.843,0,0,1-3.724-.824L24.27,13.7l-.556,3.477A11.987,11.987,0,0,0,28.142,18c4.165,0,6.876-2.076,6.909-5.29.016-1.763-1.045-3.114-3.332-4.218C30.33,7.784,29.48,7.306,29.48,6.581c.016-.659.719-1.334,2.286-1.334a6.693,6.693,0,0,1,2.957.593L35.082,6Z" transform="translate(0 -2)" fill="#00579f"/>
    <path id="Path_754" data-name="Path 754" d="M40.9,12.282c.327-.89,1.585-4.334,1.585-4.334-.016.033.326-.906.522-1.483L43.283,7.8s.752,3.707.915,4.482Zm4.9-10h-3.07a1.957,1.957,0,0,0-2.075,1.285l-5.9,14.2h4.165l.833-2.323h5.1c.114.544.474,2.323.474,2.323H49Z" transform="translate(0 -2)" fill="#00579f"/>
    <path id="Path_755" data-name="Path 755" d="M13.948,2.281,10.061,12.842,9.636,10.7A11.828,11.828,0,0,0,4.148,4.208L7.709,17.753h4.2L18.146,2.281Z" transform="translate(0 -2)" fill="#00579f"/>
    <path id="Path_756" data-name="Path 756" d="M6.452,2.281H.065L0,2.594C4.982,3.879,8.281,6.977,9.637,10.7L8.248,3.583A1.644,1.644,0,0,0,6.452,2.281Z" transform="translate(0 -2)" fill="#f4a622"/>
  </g>
</svg>
